<svg width="36" height="36" viewBox="0 0 36 36" fill="none" xmlns="http://www.w3.org/2000/svg">
<path d="M8.40001 24V16.8C8.40001 15.8452 8.7793 14.9295 9.45443 14.2544C10.1296 13.5793 11.0452 13.2 12 13.2C12.9548 13.2 13.8705 13.5793 14.5456 14.2544C15.2207 14.9295 15.6 15.8452 15.6 16.8V24H8.40001ZM27.6 12V24V12ZM27.6 18H22.8C22.1635 18 21.553 18.2529 21.103 18.7029C20.6529 19.153 20.4 19.7635 20.4 20.4C20.4 21.0365 20.6529 21.647 21.103 22.0971C21.553 22.5471 22.1635 22.8 22.8 22.8H27.6V18ZM8.40001 20.4H15.6H8.40001ZM6.00001 6H30C31.2731 6 32.494 6.50571 33.3941 7.40589C34.2943 8.30606 34.8 9.52696 34.8 10.8V25.2C34.8 26.473 34.2943 27.6939 33.3941 28.5941C32.494 29.4943 31.2731 30 30 30H6.00001C4.72697 30 3.50607 29.4943 2.6059 28.5941C1.70573 27.6939 1.20001 26.473 1.20001 25.2V10.8C1.20001 9.52696 1.70573 8.30606 2.6059 7.40589C3.50607 6.50571 4.72697 6 6.00001 6V6Z" stroke="#FE1E98" stroke-width="2.4"/>
</svg>
