<svg width="36" height="36" viewBox="0 0 36 36" fill="none" xmlns="http://www.w3.org/2000/svg">
<g clip-path="url(#clip0_122_58)">
<path d="M21.6 13.2H36H21.6ZM21.6 3.59995H36H21.6ZM0 22.8H36H0ZM0 32.4H36H0ZM3.6 1.19995H13.2C13.8365 1.19995 14.447 1.45281 14.8971 1.90289C15.3471 2.35298 15.6 2.96343 15.6 3.59995V13.2C15.6 13.8365 15.3471 14.4469 14.8971 14.897C14.447 15.3471 13.8365 15.6 13.2 15.6H3.6C2.96348 15.6 2.35303 15.3471 1.90294 14.897C1.45286 14.4469 1.2 13.8365 1.2 13.2V3.59995C1.2 2.96343 1.45286 2.35298 1.90294 1.90289C2.35303 1.45281 2.96348 1.19995 3.6 1.19995V1.19995Z" stroke="#FE1E98" stroke-width="2.4"/>
</g>
<defs>
<clipPath id="clip0_122_58">
<rect width="36" height="36" fill="white"/>
</clipPath>
</defs>
</svg>
