<svg width="36" height="36" viewBox="0 0 36 36" fill="none" xmlns="http://www.w3.org/2000/svg">
<g clip-path="url(#clip0_122_50)">
<path d="M34.8 5.99998L36 5.99998L36 4.79998L34.8 4.79998L34.8 5.99998ZM34.8 30L34.8 31.2L36 31.2L36 30L34.8 30ZM24.6624 11.8728C24.9466 12.0124 25.2745 12.0341 25.5746 11.9331C25.8747 11.8321 26.1227 11.6165 26.2645 11.3334C26.4064 11.0503 26.4306 10.7227 26.3319 10.4218C26.2332 10.1209 26.0196 9.87123 25.7376 9.72718L24.6624 11.8728ZM15.6144 5.99998L16.1496 4.92718L15.4464 4.57678L14.844 5.08078L15.612 5.99998L15.6144 5.99998ZM1.2216 18L0.453597 17.0784C0.31813 17.191 0.209117 17.332 0.1343 17.4915C0.059482 17.651 0.0206942 17.825 0.0206941 18.0012C0.0206941 18.1773 0.059482 18.3513 0.1343 18.5108C0.209117 18.6703 0.31813 18.8114 0.453597 18.924L1.2216 18ZM15.612 30L14.844 30.9216L15.4464 31.4256L16.1496 31.0752L15.612 30.0024L15.612 30ZM25.7376 26.2728C26.0196 26.1287 26.2332 25.8791 26.3319 25.5782C26.4306 25.2773 26.4064 24.9496 26.2645 24.6665C26.1227 24.3834 25.8747 24.1679 25.5746 24.0669C25.2745 23.9658 24.9466 23.9875 24.6624 24.1272L25.7376 26.2728ZM13.2144 19.2L14.4144 19.2L14.4144 16.8L13.2144 16.8L13.2144 19.2ZM24.0072 18C24.0066 16.5821 24.2852 15.178 24.8273 13.8679C25.3694 12.5578 26.1643 11.3673 27.1665 10.3644C28.1687 9.36146 29.3587 8.56582 30.6685 8.02287C31.9783 7.47991 33.3822 7.2003 34.8 7.19998L34.8 4.79998C33.067 4.8003 31.351 5.14199 29.75 5.80556C28.1491 6.46912 26.6945 7.44155 25.4694 8.66731C24.2443 9.89308 23.2727 11.3482 22.61 12.9495C21.9473 14.5508 21.6066 16.267 21.6072 18L24.0072 18ZM33.6 5.99998L33.6 30L36 30L36 5.99998L33.6 5.99998ZM34.8 28.8C33.3822 28.7997 31.9783 28.5201 30.6685 27.9771C29.3587 27.4342 28.1687 26.6385 27.1665 25.6356C26.1643 24.6327 25.3694 23.4422 24.8273 22.132C24.2852 20.8219 24.0066 19.4178 24.0072 18L21.6072 18C21.6072 25.2912 27.5112 31.2 34.8 31.2L34.8 28.8ZM25.7376 9.72718L16.1496 4.92718L15.0744 7.07518L24.6624 11.8752L25.7376 9.72718ZM14.844 5.07838L0.453597 17.0784L1.9896 18.924L16.38 6.92398L14.844 5.07838ZM0.453597 18.9216L14.844 30.9216L16.38 29.0784L1.9896 17.0784L0.453597 18.924L0.453597 18.9216ZM16.1496 31.0752L25.7376 26.2752L24.6624 24.1272L15.0744 28.9272L16.1496 31.0752ZM1.224 19.2L13.2144 19.2L13.2144 16.8L1.2216 16.8L1.2216 19.2L1.224 19.2Z" fill="#FE1E98"/>
</g>
<defs>
<clipPath id="clip0_122_50">
<rect width="36" height="36" fill="white" transform="translate(36) rotate(90)"/>
</clipPath>
</defs>
</svg>
