<svg width="20" height="20" viewBox="0 0 36 36" fill="none" xmlns="http://www.w3.org/2000/svg">
<g clip-path="url(#clip0_134_149)">
<path d="M1.20001 10.8001L18 20.4001L34.8 10.8001H1.20001ZM3.60001 3.6001H32.4C33.0365 3.6001 33.647 3.85295 34.0971 4.30304C34.5472 4.75313 34.8 5.36358 34.8 6.0001V30.0001C34.8 30.6366 34.5472 31.2471 34.0971 31.6972C33.647 32.1472 33.0365 32.4001 32.4 32.4001H3.60001C2.96349 32.4001 2.35304 32.1472 1.90296 31.6972C1.45287 31.2471 1.20001 30.6366 1.20001 30.0001V6.0001C1.20001 5.36358 1.45287 4.75313 1.90296 4.30304C2.35304 3.85295 2.96349 3.6001 3.60001 3.6001V3.6001Z" stroke="#EDEDED" stroke-width="2.4"/>
</g>
<defs>
<clipPath id="clip0_134_149">
<rect width="36" height="36" fill="white"/>
</clipPath>
</defs>
</svg>
