<svg width="64" height="64" viewBox="0 0 64 64" fill="none" xmlns="http://www.w3.org/2000/svg">
<path d="M32 61.8666C28.0779 61.8666 24.1941 61.0941 20.5705 59.5932C16.9469 58.0922 13.6545 55.8923 10.8811 53.1189C8.1077 50.3455 5.90774 47.053 4.4068 43.4295C2.90586 39.8059 2.13333 35.9221 2.13333 32C2.13333 28.0778 2.90586 24.1941 4.4068 20.5705C5.90774 16.9469 8.1077 13.6544 10.8811 10.881C13.6545 8.10767 16.9469 5.90771 20.5705 4.40677C24.1941 2.90582 28.0779 2.1333 32 2.1333C39.9211 2.1333 47.5178 5.27996 53.1189 10.881C58.72 16.4821 61.8667 24.0788 61.8667 32C61.8667 39.9211 58.72 47.5178 53.1189 53.1189C47.5178 58.72 39.9211 61.8666 32 61.8666ZM32 61.8666V27.7333C32 25.4701 32.899 23.2996 34.4994 21.6993C36.0997 20.099 38.2702 19.2 40.5333 19.2H42.6667M21.3333 36.2666H42.6667" stroke="#EDEDED" stroke-width="2.4"/>
</svg>
