<svg width="64" height="64" viewBox="0 0 64 64" fill="none" xmlns="http://www.w3.org/2000/svg">
<path d="M46.9333 14.9333H51.2H46.9333ZM19.2 2.1333H44.8C49.3264 2.1333 53.6673 3.93139 56.868 7.13201C60.0686 10.3326 61.8667 14.6736 61.8667 19.2V44.8C61.8667 49.3263 60.0686 53.6673 56.868 56.8679C53.6673 60.0685 49.3264 61.8666 44.8 61.8666H19.2C14.6736 61.8666 10.3327 60.0685 7.13204 56.8679C3.93142 53.6673 2.13333 49.3263 2.13333 44.8V19.2C2.13333 14.6736 3.93142 10.3326 7.13204 7.13201C10.3327 3.93139 14.6736 2.1333 19.2 2.1333V2.1333ZM32 44.8C28.6052 44.8 25.3495 43.4514 22.949 41.0509C20.5486 38.6505 19.2 35.3947 19.2 32C19.2 28.6052 20.5486 25.3495 22.949 22.949C25.3495 20.5485 28.6052 19.2 32 19.2C35.3948 19.2 38.6505 20.5485 41.051 22.949C43.4514 25.3495 44.8 28.6052 44.8 32C44.8 35.3947 43.4514 38.6505 41.051 41.0509C38.6505 43.4514 35.3948 44.8 32 44.8Z" stroke="#EDEDED" stroke-width="2.4"/>
</svg>
