<svg width="20" height="20" viewBox="0 0 36 36" fill="none" xmlns="http://www.w3.org/2000/svg">
<path d="M11.328 1.2002H6.00001C4.72697 1.2002 3.50607 1.70591 2.6059 2.60608C1.70573 3.50626 1.20001 4.72716 1.20001 6.0002V10.8002C1.20001 24.0554 11.9448 34.8002 25.2 34.8002H30C31.2731 34.8002 32.494 34.2945 33.3941 33.3943C34.2943 32.4941 34.8 31.2732 34.8 30.0002V26.6834C34.7998 26.2378 34.6755 25.8011 34.4411 25.4221C34.2067 25.0432 33.8714 24.737 33.4728 24.5378L27.6744 21.6386C27.3669 21.4848 27.0299 21.3988 26.6862 21.3866C26.3426 21.3743 26.0003 21.4361 25.6826 21.5676C25.3649 21.6991 25.0792 21.8974 24.8448 22.149C24.6104 22.4006 24.4328 22.6996 24.324 23.0258L23.6112 25.169C23.3875 25.8404 22.9262 26.4071 22.3141 26.7624C21.702 27.1177 20.9812 27.2373 20.2872 27.0986C17.4778 26.5364 14.8977 25.1551 12.872 23.129C10.8463 21.1029 9.46567 18.5225 8.90401 15.713C8.76535 15.019 8.88491 14.2982 9.24023 13.6861C9.59555 13.074 10.1622 12.6128 10.8336 12.389L13.4928 11.501C14.0658 11.3098 14.5457 10.9096 14.8367 10.3802C15.1276 9.85085 15.2082 9.23121 15.0624 8.645L13.656 3.017C13.526 2.498 13.2263 2.03734 12.8045 1.70817C12.3827 1.379 11.863 1.20021 11.328 1.2002V1.2002Z" stroke="#EDEDED" stroke-width="2.4"/>
</svg>
