<svg width="36" height="36" viewBox="0 0 36 36" fill="none" xmlns="http://www.w3.org/2000/svg">
<path d="M20.4 20.4L25.2 25.2L20.4 20.4ZM16.8 22.8C15.2087 22.8 13.6825 22.1678 12.5573 21.0426C11.4321 19.9174 10.8 18.3913 10.8 16.8C10.8 15.2087 11.4321 13.6825 12.5573 12.5573C13.6825 11.4321 15.2087 10.8 16.8 10.8C18.3913 10.8 19.9174 11.4321 21.0426 12.5573C22.1678 13.6825 22.8 15.2087 22.8 16.8C22.8 18.3913 22.1678 19.9174 21.0426 21.0426C19.9174 22.1678 18.3913 22.8 16.8 22.8V22.8ZM18 34.8C15.7937 34.8 13.6091 34.3654 11.5709 33.5211C9.5326 32.6768 7.68058 31.4394 6.12056 29.8793C4.56053 28.3193 3.32305 26.4673 2.47878 24.429C1.6345 22.3908 1.19995 20.2062 1.19995 18C1.19995 15.7937 1.6345 13.6091 2.47878 11.5709C3.32305 9.5326 4.56053 7.68058 6.12056 6.12056C7.68058 4.56053 9.5326 3.32305 11.5709 2.47877C13.6091 1.6345 15.7937 1.19995 18 1.19995C22.4556 1.19995 26.7287 2.96995 29.8793 6.12056C33.03 9.27117 34.8 13.5443 34.8 18C34.8 22.4556 33.03 26.7287 29.8793 29.8793C26.7287 33.03 22.4556 34.8 18 34.8Z" stroke="#FE1E98" stroke-width="2.4"/>
</svg>
