<svg width="36" height="36" viewBox="0 0 36 36" fill="none" xmlns="http://www.w3.org/2000/svg">
<path d="M26.4 8.39995H28.8H26.4ZM10.8 1.19995H25.2C27.746 1.19995 30.1878 2.21138 31.9882 4.01173C33.7885 5.81208 34.8 8.25387 34.8 10.8V25.2C34.8 27.746 33.7885 30.1878 31.9882 31.9882C30.1878 33.7885 27.746 34.8 25.2 34.8H10.8C8.25387 34.8 5.81208 33.7885 4.01173 31.9882C2.21138 30.1878 1.19995 27.746 1.19995 25.2V10.8C1.19995 8.25387 2.21138 5.81208 4.01173 4.01173C5.81208 2.21138 8.25387 1.19995 10.8 1.19995V1.19995ZM18 25.2C16.0904 25.2 14.259 24.4414 12.9088 23.0911C11.5585 21.7409 10.8 19.9095 10.8 18C10.8 16.0904 11.5585 14.259 12.9088 12.9088C14.259 11.5585 16.0904 10.8 18 10.8C19.9095 10.8 21.7409 11.5585 23.0911 12.9088C24.4414 14.259 25.2 16.0904 25.2 18C25.2 19.9095 24.4414 21.7409 23.0911 23.0911C21.7409 24.4414 19.9095 25.2 18 25.2Z" stroke="#FE1E98" stroke-width="2.4"/>
</svg>
