<svg width="62" height="62" viewBox="0 0 62 62" fill="none" xmlns="http://www.w3.org/2000/svg">
<path d="M31.0046 1.77608e-07C25.5776 -0.000580646 20.2455 1.42343 15.5415 4.12966C10.8375 6.8359 6.92628 10.7295 4.199 15.4213C1.47172 20.113 0.0238991 25.4384 0.000293351 30.8652C-0.0233124 36.2919 1.37812 41.6297 4.06448 46.345L1.27437 56.141C1.09553 56.7771 1.08934 57.4493 1.25644 58.0886C1.42353 58.7278 1.75789 59.3111 2.22512 59.7783C2.69236 60.2455 3.27561 60.5798 3.9149 60.7469C4.55419 60.914 5.22645 60.9078 5.86256 60.729L15.659 57.939C19.7842 60.2878 24.3938 61.658 29.1323 61.9438C33.8709 62.2295 38.6117 61.4233 42.9894 59.5873C47.3671 57.7513 51.2646 54.9345 54.3815 51.3541C57.4984 47.7737 59.7514 43.5254 60.9668 38.9366C62.1821 34.3479 62.3274 29.5414 61.3914 24.8876C60.4554 20.2338 58.4631 15.8572 55.5681 12.0951C52.6731 8.33302 48.9528 5.28599 44.694 3.18895C40.4352 1.09192 35.7517 0.000892344 31.0046 1.77608e-07ZM31.0046 59.52C25.8751 59.5319 20.8387 58.1496 16.434 55.521C16.2417 55.4231 16.0297 55.3701 15.814 55.366H15.4729L5.18053 58.311C4.97022 58.3674 4.74875 58.3675 4.53841 58.3112C4.32807 58.2549 4.13627 58.1441 3.9823 57.9902C3.82833 57.8362 3.71761 57.6444 3.66129 57.4341C3.60497 57.2238 3.60503 57.0023 3.66147 56.792L6.60659 46.5C6.69377 46.1759 6.6492 45.8304 6.48258 45.539C3.27454 40.1254 1.94708 33.8028 2.70697 27.5561C3.46686 21.3095 6.27144 15.4895 10.6838 11.0028C15.0962 6.51612 20.8687 3.61462 27.102 2.75031C33.3353 1.88599 39.6795 3.10739 45.1463 6.22423C50.613 9.34107 54.8955 14.1783 57.3265 19.9825C59.7575 25.7867 60.2006 32.232 58.5867 38.3142C56.9728 44.3964 53.3926 49.7742 48.4037 53.6097C43.4149 57.4453 37.2975 59.5233 31.0046 59.52ZM46.6602 36.735L40.3359 33.139C39.7593 32.8087 39.1052 32.6375 38.4407 32.6429C37.7761 32.6484 37.125 32.8303 36.5538 33.17L32.2756 35.743C29.6986 34.4065 27.5979 32.3059 26.2614 29.729L28.8345 25.451C29.1742 24.8799 29.3561 24.2287 29.3616 23.5642C29.367 22.8997 29.1958 22.2456 28.8655 21.669L25.2693 15.345C24.9707 14.8278 24.5415 14.3981 24.0247 14.0989C23.5078 13.7997 22.9214 13.6414 22.3242 13.64C19.6985 13.64 17.1799 14.6809 15.3204 16.5345C13.4608 18.3882 12.412 20.9034 12.4038 23.529C12.3997 26.9512 13.0703 30.3407 14.3772 33.5036C15.684 36.6665 17.6016 39.5408 20.0201 41.9621C22.4386 44.3834 25.3108 46.3043 28.4722 47.6149C31.6337 48.9254 35.0225 49.6 38.4449 49.6H38.4759C41.1016 49.5918 43.6169 48.543 45.4706 46.6836C47.3244 44.8241 48.3653 42.3056 48.3653 39.68C48.3638 39.0828 48.2056 38.4964 47.9064 37.9796C47.6071 37.4628 47.1774 37.0336 46.6602 36.735ZM38.4759 47.12H38.4449C32.1933 47.1118 26.2005 44.6227 21.7829 40.1994C17.3652 35.7761 14.8839 29.7804 14.8839 23.529C14.8921 21.5612 15.6796 19.6767 17.0741 18.2882C18.4685 16.8996 20.3563 16.12 22.3242 16.12C22.483 16.1222 22.6383 16.1664 22.7744 16.248C22.9106 16.3297 23.0226 16.446 23.0993 16.585L26.7264 22.909C26.8322 23.1041 26.8876 23.3225 26.8876 23.5445C26.8876 23.7664 26.8322 23.9849 26.7264 24.18L23.8123 29.016C23.7049 29.186 23.6429 29.3807 23.632 29.5814C23.6211 29.7822 23.6619 29.9824 23.7503 30.163C25.3648 33.7603 28.2441 36.6396 31.8416 38.254C32.0222 38.3424 32.2224 38.3831 32.4232 38.3723C32.624 38.3614 32.8186 38.2994 32.9887 38.192L37.8248 35.278C38.02 35.1722 38.2384 35.1168 38.4604 35.1168C38.6823 35.1168 38.9008 35.1722 39.0959 35.278L45.4202 38.905C45.5592 38.9816 45.6755 39.0937 45.7571 39.2298C45.8388 39.3659 45.883 39.5213 45.8852 39.68C45.8852 41.6478 45.1056 43.5356 43.7169 44.9299C42.3283 46.3243 40.4438 47.1118 38.4759 47.12Z" fill="#EDEDED"/>
</svg>
