<svg width="60" height="60" viewBox="0 0 60 60" fill="none" xmlns="http://www.w3.org/2000/svg">
<path d="M6.66667 3.33333C6.66667 5.17428 5.17428 6.66667 3.33333 6.66667C1.49238 6.66667 0 5.17428 0 3.33333C0 1.49238 1.49238 0 3.33333 0C5.17428 0 6.66667 1.49238 6.66667 3.33333Z" fill="#011640"/>
<path d="M6.66667 16.6667C6.66667 18.5076 5.17428 20 3.33333 20C1.49238 20 0 18.5076 0 16.6667C0 14.8257 1.49238 13.3333 3.33333 13.3333C5.17428 13.3333 6.66667 14.8257 6.66667 16.6667Z" fill="#011640"/>
<path d="M6.66667 30C6.66667 31.841 5.17428 33.3333 3.33333 33.3333C1.49238 33.3333 0 31.841 0 30C0 28.1591 1.49238 26.6667 3.33333 26.6667C5.17428 26.6667 6.66667 28.1591 6.66667 30Z" fill="#011640"/>
<path d="M6.66667 43.3333C6.66667 45.1743 5.17428 46.6667 3.33333 46.6667C1.49238 46.6667 0 45.1743 0 43.3333C0 41.4924 1.49238 40 3.33333 40C5.17428 40 6.66667 41.4924 6.66667 43.3333Z" fill="#011640"/>
<path d="M6.66667 56.6667C6.66667 58.5076 5.17428 60 3.33333 60C1.49238 60 0 58.5076 0 56.6667C0 54.8257 1.49238 53.3333 3.33333 53.3333C5.17428 53.3333 6.66667 54.8257 6.66667 56.6667Z" fill="#011640"/>
<path d="M20 3.33333C20 5.17428 18.5076 6.66667 16.6667 6.66667C14.8257 6.66667 13.3333 5.17428 13.3333 3.33333C13.3333 1.49238 14.8257 0 16.6667 0C18.5076 0 20 1.49238 20 3.33333Z" fill="#011640"/>
<path d="M20 16.6667C20 18.5076 18.5076 20 16.6667 20C14.8257 20 13.3333 18.5076 13.3333 16.6667C13.3333 14.8257 14.8257 13.3333 16.6667 13.3333C18.5076 13.3333 20 14.8257 20 16.6667Z" fill="#011640"/>
<path d="M20 30C20 31.841 18.5076 33.3333 16.6667 33.3333C14.8257 33.3333 13.3333 31.841 13.3333 30C13.3333 28.1591 14.8257 26.6667 16.6667 26.6667C18.5076 26.6667 20 28.1591 20 30Z" fill="#011640"/>
<path d="M20 43.3333C20 45.1743 18.5076 46.6667 16.6667 46.6667C14.8257 46.6667 13.3333 45.1743 13.3333 43.3333C13.3333 41.4924 14.8257 40 16.6667 40C18.5076 40 20 41.4924 20 43.3333Z" fill="#011640"/>
<path d="M20 56.6667C20 58.5076 18.5076 60 16.6667 60C14.8257 60 13.3333 58.5076 13.3333 56.6667C13.3333 54.8257 14.8257 53.3333 16.6667 53.3333C18.5076 53.3333 20 54.8257 20 56.6667Z" fill="#011640"/>
<path d="M33.3333 3.33333C33.3333 5.17428 31.841 6.66667 30 6.66667C28.1591 6.66667 26.6667 5.17428 26.6667 3.33333C26.6667 1.49238 28.1591 0 30 0C31.841 0 33.3333 1.49238 33.3333 3.33333Z" fill="#011640"/>
<path d="M33.3333 16.6667C33.3333 18.5076 31.841 20 30 20C28.1591 20 26.6667 18.5076 26.6667 16.6667C26.6667 14.8257 28.1591 13.3333 30 13.3333C31.841 13.3333 33.3333 14.8257 33.3333 16.6667Z" fill="#011640"/>
<path d="M33.3333 30C33.3333 31.841 31.841 33.3333 30 33.3333C28.1591 33.3333 26.6667 31.841 26.6667 30C26.6667 28.1591 28.1591 26.6667 30 26.6667C31.841 26.6667 33.3333 28.1591 33.3333 30Z" fill="#011640"/>
<path d="M33.3333 43.3333C33.3333 45.1743 31.841 46.6667 30 46.6667C28.1591 46.6667 26.6667 45.1743 26.6667 43.3333C26.6667 41.4924 28.1591 40 30 40C31.841 40 33.3333 41.4924 33.3333 43.3333Z" fill="#011640"/>
<path d="M33.3333 56.6667C33.3333 58.5076 31.841 60 30 60C28.1591 60 26.6667 58.5076 26.6667 56.6667C26.6667 54.8257 28.1591 53.3333 30 53.3333C31.841 53.3333 33.3333 54.8257 33.3333 56.6667Z" fill="#011640"/>
<path d="M46.6667 3.33333C46.6667 5.17428 45.1743 6.66667 43.3333 6.66667C41.4924 6.66667 40 5.17428 40 3.33333C40 1.49238 41.4924 0 43.3333 0C45.1743 0 46.6667 1.49238 46.6667 3.33333Z" fill="#011640"/>
<path d="M46.6667 16.6667C46.6667 18.5076 45.1743 20 43.3333 20C41.4924 20 40 18.5076 40 16.6667C40 14.8257 41.4924 13.3333 43.3333 13.3333C45.1743 13.3333 46.6667 14.8257 46.6667 16.6667Z" fill="#011640"/>
<path d="M46.6667 30C46.6667 31.841 45.1743 33.3333 43.3333 33.3333C41.4924 33.3333 40 31.841 40 30C40 28.1591 41.4924 26.6667 43.3333 26.6667C45.1743 26.6667 46.6667 28.1591 46.6667 30Z" fill="#011640"/>
<path d="M46.6667 43.3333C46.6667 45.1743 45.1743 46.6667 43.3333 46.6667C41.4924 46.6667 40 45.1743 40 43.3333C40 41.4924 41.4924 40 43.3333 40C45.1743 40 46.6667 41.4924 46.6667 43.3333Z" fill="#011640"/>
<path d="M46.6667 56.6667C46.6667 58.5076 45.1743 60 43.3333 60C41.4924 60 40 58.5076 40 56.6667C40 54.8257 41.4924 53.3333 43.3333 53.3333C45.1743 53.3333 46.6667 54.8257 46.6667 56.6667Z" fill="#011640"/>
<path d="M60 3.33333C60 5.17428 58.5076 6.66667 56.6667 6.66667C54.8257 6.66667 53.3333 5.17428 53.3333 3.33333C53.3333 1.49238 54.8257 0 56.6667 0C58.5076 0 60 1.49238 60 3.33333Z" fill="#011640"/>
<path d="M60 16.6667C60 18.5076 58.5076 20 56.6667 20C54.8257 20 53.3333 18.5076 53.3333 16.6667C53.3333 14.8257 54.8257 13.3333 56.6667 13.3333C58.5076 13.3333 60 14.8257 60 16.6667Z" fill="#011640"/>
<path d="M60 30C60 31.841 58.5076 33.3333 56.6667 33.3333C54.8257 33.3333 53.3333 31.841 53.3333 30C53.3333 28.1591 54.8257 26.6667 56.6667 26.6667C58.5076 26.6667 60 28.1591 60 30Z" fill="#011640"/>
<path d="M60 43.3333C60 45.1743 58.5076 46.6667 56.6667 46.6667C54.8257 46.6667 53.3333 45.1743 53.3333 43.3333C53.3333 41.4924 54.8257 40 56.6667 40C58.5076 40 60 41.4924 60 43.3333Z" fill="#011640"/>
<path d="M60 56.6667C60 58.5076 58.5076 60 56.6667 60C54.8257 60 53.3333 58.5076 53.3333 56.6667C53.3333 54.8257 54.8257 53.3333 56.6667 53.3333C58.5076 53.3333 60 54.8257 60 56.6667Z" fill="#011640"/>
</svg>
