<svg width="210" height="36" viewBox="0 0 210 36" fill="none" xmlns="http://www.w3.org/2000/svg">
<path d="M45.48 27.24C43.16 27.24 41.352 26.592 40.056 25.296C38.76 23.984 38.112 22.112 38.112 19.68V10.2H41.232V19.56C41.232 22.856 42.656 24.504 45.504 24.504C48.336 24.504 49.752 22.856 49.752 19.56V10.2H52.824V19.68C52.824 22.112 52.176 23.984 50.88 25.296C49.6 26.592 47.8 27.24 45.48 27.24Z" fill="#2E2E2E"/>
<path d="M73.0815 14.04C74.6975 14.04 75.9775 14.512 76.9215 15.456C77.8655 16.384 78.3375 17.784 78.3375 19.656V27H75.3375V20.04C75.3375 18.92 75.0895 18.08 74.5935 17.52C74.0975 16.944 73.3855 16.656 72.4575 16.656C71.4495 16.656 70.6415 16.992 70.0335 17.664C69.4255 18.32 69.1215 19.264 69.1215 20.496V27H66.1215V20.04C66.1215 18.92 65.8735 18.08 65.3775 17.52C64.8815 16.944 64.1695 16.656 63.2415 16.656C62.2175 16.656 61.4015 16.984 60.7935 17.64C60.2015 18.296 59.9055 19.248 59.9055 20.496V27H56.9055V14.184H59.7615V15.816C60.2415 15.24 60.8415 14.8 61.5615 14.496C62.2815 14.192 63.0815 14.04 63.9615 14.04C64.9215 14.04 65.7695 14.224 66.5055 14.592C67.2575 14.944 67.8495 15.472 68.2815 16.176C68.8095 15.504 69.4895 14.984 70.3215 14.616C71.1535 14.232 72.0735 14.04 73.0815 14.04Z" fill="#2E2E2E"/>
<path d="M94.3631 18.264C95.2911 18.568 96.0271 19.08 96.5711 19.8C97.1151 20.504 97.3871 21.384 97.3871 22.44C97.3871 23.896 96.8271 25.024 95.7071 25.824C94.5871 26.608 92.9551 27 90.8111 27H82.4591V10.2H90.3311C92.3151 10.2 93.8431 10.592 94.9151 11.376C95.9871 12.144 96.5231 13.208 96.5231 14.568C96.5231 15.4 96.3311 16.136 95.9471 16.776C95.5631 17.416 95.0351 17.912 94.3631 18.264ZM85.5791 12.648V17.28H89.9951C91.0831 17.28 91.9151 17.088 92.4911 16.704C93.0831 16.304 93.3791 15.728 93.3791 14.976C93.3791 14.208 93.0831 13.632 92.4911 13.248C91.9151 12.848 91.0831 12.648 89.9951 12.648H85.5791ZM90.6191 24.552C93.0351 24.552 94.2431 23.744 94.2431 22.128C94.2431 20.512 93.0351 19.704 90.6191 19.704H85.5791V24.552H90.6191Z" fill="#2E2E2E"/>
<path d="M100.429 14.184H103.429V27H100.429V14.184ZM101.941 12.072C101.397 12.072 100.941 11.904 100.573 11.568C100.205 11.216 100.021 10.784 100.021 10.272C100.021 9.76 100.205 9.336 100.573 9C100.941 8.648 101.397 8.472 101.941 8.472C102.485 8.472 102.941 8.64 103.309 8.976C103.677 9.296 103.861 9.704 103.861 10.2C103.861 10.728 103.677 11.176 103.309 11.544C102.957 11.896 102.501 12.072 101.941 12.072Z" fill="#2E2E2E"/>
<path d="M115.07 26.304C114.718 26.592 114.286 26.808 113.774 26.952C113.278 27.096 112.75 27.168 112.19 27.168C110.782 27.168 109.694 26.8 108.926 26.064C108.158 25.328 107.774 24.256 107.774 22.848V16.68H105.662V14.28H107.774V11.352H110.774V14.28H114.206V16.68H110.774V22.776C110.774 23.4 110.926 23.88 111.23 24.216C111.534 24.536 111.974 24.696 112.55 24.696C113.222 24.696 113.782 24.52 114.23 24.168L115.07 26.304Z" fill="#2E2E2E"/>
<path d="M125.602 27.24C123.906 27.24 122.37 26.872 120.994 26.136C119.634 25.384 118.562 24.352 117.778 23.04C117.01 21.728 116.626 20.248 116.626 18.6C116.626 16.952 117.018 15.472 117.802 14.16C118.586 12.848 119.658 11.824 121.018 11.088C122.394 10.336 123.93 9.96 125.626 9.96C127.002 9.96 128.258 10.2 129.394 10.68C130.53 11.16 131.49 11.856 132.274 12.768L130.258 14.664C129.042 13.352 127.546 12.696 125.77 12.696C124.618 12.696 123.586 12.952 122.674 13.464C121.762 13.96 121.05 14.656 120.538 15.552C120.026 16.448 119.77 17.464 119.77 18.6C119.77 19.736 120.026 20.752 120.538 21.648C121.05 22.544 121.762 23.248 122.674 23.76C123.586 24.256 124.618 24.504 125.77 24.504C127.546 24.504 129.042 23.84 130.258 22.512L132.274 24.432C131.49 25.344 130.522 26.04 129.37 26.52C128.234 27 126.978 27.24 125.602 27.24Z" fill="#2E2E2E"/>
<path d="M137.832 16.056C138.696 14.712 140.216 14.04 142.392 14.04V16.896C142.136 16.848 141.904 16.824 141.696 16.824C140.528 16.824 139.616 17.168 138.96 17.856C138.304 18.528 137.976 19.504 137.976 20.784V27H134.976V14.184H137.832V16.056Z" fill="#2E2E2E"/>
<path d="M144.937 14.184H147.937V27H144.937V14.184ZM146.449 12.072C145.905 12.072 145.449 11.904 145.081 11.568C144.713 11.216 144.529 10.784 144.529 10.272C144.529 9.76 144.713 9.336 145.081 9C145.449 8.648 145.905 8.472 146.449 8.472C146.993 8.472 147.449 8.64 147.817 8.976C148.185 9.296 148.369 9.704 148.369 10.2C148.369 10.728 148.185 11.176 147.817 11.544C147.465 11.896 147.009 12.072 146.449 12.072Z" fill="#2E2E2E"/>
<path d="M156.77 14.04C158.658 14.04 160.098 14.496 161.09 15.408C162.098 16.304 162.602 17.664 162.602 19.488V27H159.77V25.44C159.402 26 158.874 26.432 158.186 26.736C157.514 27.024 156.698 27.168 155.738 27.168C154.778 27.168 153.938 27.008 153.218 26.688C152.498 26.352 151.938 25.896 151.538 25.32C151.154 24.728 150.962 24.064 150.962 23.328C150.962 22.176 151.386 21.256 152.234 20.568C153.098 19.864 154.45 19.512 156.29 19.512H159.602V19.32C159.602 18.424 159.33 17.736 158.786 17.256C158.258 16.776 157.466 16.536 156.41 16.536C155.69 16.536 154.978 16.648 154.274 16.872C153.586 17.096 153.002 17.408 152.522 17.808L151.346 15.624C152.018 15.112 152.826 14.72 153.77 14.448C154.714 14.176 155.714 14.04 156.77 14.04ZM156.362 24.984C157.114 24.984 157.778 24.816 158.354 24.48C158.946 24.128 159.362 23.632 159.602 22.992V21.504H156.506C154.778 21.504 153.914 22.072 153.914 23.208C153.914 23.752 154.13 24.184 154.562 24.504C154.994 24.824 155.594 24.984 156.362 24.984Z" fill="#2E2E2E"/>
<path d="M174.156 26.304C173.804 26.592 173.372 26.808 172.86 26.952C172.364 27.096 171.836 27.168 171.276 27.168C169.868 27.168 168.78 26.8 168.012 26.064C167.244 25.328 166.86 24.256 166.86 22.848V16.68H164.748V14.28H166.86V11.352H169.86V14.28H173.292V16.68H169.86V22.776C169.86 23.4 170.012 23.88 170.316 24.216C170.62 24.536 171.06 24.696 171.636 24.696C172.308 24.696 172.868 24.52 173.316 24.168L174.156 26.304Z" fill="#2E2E2E"/>
<path d="M176.624 14.184H179.624V27H176.624V14.184ZM178.136 12.072C177.592 12.072 177.136 11.904 176.768 11.568C176.4 11.216 176.216 10.784 176.216 10.272C176.216 9.76 176.4 9.336 176.768 9C177.136 8.648 177.592 8.472 178.136 8.472C178.68 8.472 179.136 8.64 179.504 8.976C179.872 9.296 180.056 9.704 180.056 10.2C180.056 10.728 179.872 11.176 179.504 11.544C179.152 11.896 178.696 12.072 178.136 12.072Z" fill="#2E2E2E"/>
<path d="M195.562 14.184L190.066 27H186.97L181.474 14.184H184.594L188.578 23.688L192.682 14.184H195.562Z" fill="#2E2E2E"/>
<path d="M202.845 27.168C201.549 27.168 200.381 26.888 199.341 26.328C198.301 25.768 197.485 24.992 196.893 24C196.317 22.992 196.029 21.856 196.029 20.592C196.029 19.328 196.317 18.2 196.893 17.208C197.485 16.216 198.301 15.44 199.341 14.88C200.381 14.32 201.549 14.04 202.845 14.04C204.157 14.04 205.333 14.32 206.373 14.88C207.413 15.44 208.221 16.216 208.797 17.208C209.389 18.2 209.685 19.328 209.685 20.592C209.685 21.856 209.389 22.992 208.797 24C208.221 24.992 207.413 25.768 206.373 26.328C205.333 26.888 204.157 27.168 202.845 27.168ZM202.845 24.6C203.949 24.6 204.861 24.232 205.581 23.496C206.301 22.76 206.661 21.792 206.661 20.592C206.661 19.392 206.301 18.424 205.581 17.688C204.861 16.952 203.949 16.584 202.845 16.584C201.741 16.584 200.829 16.952 200.109 17.688C199.405 18.424 199.053 19.392 199.053 20.592C199.053 21.792 199.405 22.76 200.109 23.496C200.829 24.232 201.741 24.6 202.845 24.6Z" fill="#2E2E2E"/>
<path d="M25.0526 0H28V9H25.0526V0Z" fill="#00B3E8"/>
<path d="M25.0526 9H28V18H25.0526V9Z" fill="#FE1E98"/>
<path d="M25.0526 18H28V27H25.0526V18Z" fill="#FEF300"/>
<path d="M25.0526 27H28V36H25.0526V27Z" fill="#2E2E2E"/>
<path d="M0 0H23.5789V36H0V0Z" fill="#2E2E2E"/>
<path d="M17.6842 3H13.7544C11.2536 6 5.89474 7.5 5.89474 7.5V11.25C5.89474 11.25 9.82456 11.25 10.8963 12.75V33H17.6842V3Z" fill="white"/>
</svg>
