<svg width="647" height="662" viewBox="0 0 647 662" fill="none" xmlns="http://www.w3.org/2000/svg">
<path d="M302.767 603.228C301.076 537.744 298.918 222.644 302.3 189.811L309.045 181.603C309.045 181.603 308.884 191.015 308.722 216.081C308.02 328.266 305.412 586.491 305.987 603.168L302.767 603.228Z" fill="#00B3E8"/>
<path opacity="0.6" d="M302.767 603.228C301.076 537.744 298.918 222.644 302.3 189.811L309.045 181.603C309.045 181.603 308.884 191.015 308.722 216.081C308.02 328.266 305.412 586.491 305.987 603.168L302.767 603.228Z" fill="white"/>
<path d="M330.308 416.949C346.894 398.466 365.994 383.023 386.901 371.193C402.426 362.724 361.717 418.033 345.779 438.644C329.841 459.254 310.233 482.032 303.937 501.278C302.677 462.064 310.665 438.764 330.308 416.949Z" fill="#00B3E8"/>
<path opacity="0.6" d="M330.308 416.949C346.894 398.466 365.994 383.023 386.901 371.193C402.426 362.724 361.717 418.033 345.779 438.644C329.841 459.254 310.233 482.032 303.937 501.278C302.677 462.064 310.665 438.764 330.308 416.949Z" fill="white"/>
<path d="M303.775 249.556C291.65 189.871 295.392 155.554 309.045 118.768C321.818 84.3698 331.783 68.9971 346.624 55.9725C350.456 52.621 341.839 100.706 328.635 136.549C319.317 161.835 314.694 194.748 308.254 213.693C303.775 226.698 303.775 249.556 303.775 249.556Z" fill="#00B3E8"/>
<path opacity="0.6" d="M303.775 249.556C291.65 189.871 295.392 155.554 309.045 118.768C321.818 84.3698 331.783 68.9971 346.624 55.9725C350.456 52.621 341.839 100.706 328.635 136.549C319.317 161.835 314.694 194.748 308.254 213.693C303.775 226.698 303.775 249.556 303.775 249.556Z" fill="white"/>
<path d="M304.422 380.344C303.091 344.622 301.49 310.103 325.829 264.728C331.748 253.67 384.113 160.37 402.192 154.751C411.061 152.022 395.302 224.209 371.089 267.297C352.92 299.587 344.538 308.137 324.66 345.826C316.835 360.677 304.422 380.344 304.422 380.344Z" fill="#00B3E8"/>
<path opacity="0.6" d="M304.422 380.344C303.091 344.622 301.49 310.103 325.829 264.728C331.748 253.67 384.113 160.37 402.192 154.751C411.061 152.022 395.302 224.209 371.089 267.297C352.92 299.587 344.538 308.137 324.66 345.826C316.835 360.677 304.422 380.344 304.422 380.344Z" fill="white"/>
<path d="M273.158 232.819C251.787 209.82 230.83 194.688 215.305 187.042C199.781 179.395 240.652 236.612 260.278 261.457C279.904 286.302 297.893 307.856 305.592 329.972C303.379 282.589 294.547 255.837 273.158 232.819Z" fill="#00B3E8"/>
<path opacity="0.6" d="M273.158 232.819C251.787 209.82 230.83 194.688 215.305 187.042C199.781 179.395 240.652 236.612 260.278 261.457C279.904 286.302 297.893 307.856 305.592 329.972C303.379 282.589 294.547 255.837 273.158 232.819Z" fill="white"/>
<path d="M305.61 448.096C302.138 421.184 294.223 390.459 282.08 369.186C269.938 347.913 251.247 315.482 235.777 306.712C232.071 304.604 252.524 370.33 262.436 388.512C270.55 403.541 280.416 417.301 291.776 429.432C294.403 432.463 305.61 448.096 305.61 448.096Z" fill="#00B3E8"/>
<path opacity="0.6" d="M305.61 448.096C302.138 421.184 294.223 390.459 282.08 369.186C269.938 347.913 251.247 315.482 235.777 306.712C232.071 304.604 252.524 370.33 262.436 388.512C270.55 403.541 280.416 417.301 291.776 429.432C294.403 432.463 305.61 448.096 305.61 448.096Z" fill="white"/>
<path d="M331.603 620.206H277.205L273.104 554.822H335.705L331.603 620.206Z" fill="#00B3E8"/>
<path d="M339.753 565.84H269.056L267.024 548.801H341.785L339.753 565.84Z" fill="#00B3E8"/>
<g opacity="0.4">
<path opacity="0.4" d="M331.604 620.206H277.205L273.104 554.822H335.705L331.604 620.206Z" fill="black"/>
<path opacity="0.4" d="M339.753 565.84H269.056L267.024 548.801H341.785L339.753 565.84Z" fill="black"/>
</g>
<path d="M390.428 375.848C373.698 379.2 319.12 341.31 300.645 316.365C313.906 303.568 326.049 289.396 336.911 274.04C324.93 289.352 305.682 302.939 294.259 310.163C289.096 305.186 286.074 302.136 286.074 302.136C286.074 302.136 332.845 284.656 357.706 223.185C376.648 176.405 404.171 151.299 433.259 175.341C489.816 190.794 429.859 356.603 390.428 375.848Z" fill="#263238"/>
<path d="M407.283 274.862C406.834 275.605 406.564 276.046 406.204 276.568L405.215 278.053C404.531 279.017 403.847 279.92 403.146 280.823C401.725 282.629 400.286 284.355 398.775 286.001C395.73 289.266 392.484 292.291 389.061 295.052C385.624 297.772 382.017 300.213 378.267 302.357C376.36 303.38 374.472 304.363 372.511 305.267L369.579 306.551L368.805 306.892C368.337 307.053 367.942 307.213 367.42 307.354C366.246 307.688 365.028 307.79 363.822 307.655C362.334 307.481 360.904 306.917 359.649 306.009C358.59 305.199 357.68 304.171 356.968 302.979C356.046 301.385 355.394 299.617 355.044 297.761C354.55 295.122 354.339 292.428 354.414 289.733C354.546 285.092 355.003 280.468 355.781 275.906C356.519 271.471 357.382 267.136 358.354 262.841C359.325 258.546 360.44 254.332 361.753 250.077L368.499 251.904C368.014 256.118 367.474 260.393 367.114 264.647C366.754 268.902 366.305 273.116 366.089 277.311C365.835 281.352 365.805 285.407 365.999 289.452C366.067 291.117 366.308 292.767 366.718 294.369C366.88 294.951 367.114 295.333 367.042 295.112C366.891 294.815 366.674 294.566 366.413 294.389C365.987 294.05 365.492 293.836 364.973 293.767C364.735 293.726 364.492 293.726 364.254 293.767C364.254 293.767 364.254 293.767 364.254 293.767L364.83 293.466L367.24 292.162C368.859 291.299 370.406 290.295 371.971 289.352C375.044 287.318 378.016 285.1 380.876 282.709C383.693 280.267 386.367 277.626 388.881 274.802C390.158 273.437 391.363 271.993 392.478 270.527C393.036 269.785 393.612 269.042 394.133 268.3L394.925 267.196L395.573 266.273L407.283 274.862Z" fill="#E4897B"/>
<path d="M367.887 253.75L373.698 242.13L359.415 243.094C359.415 243.094 358.515 250.639 362.437 255.255L367.887 253.75Z" fill="#E4897B"/>
<path d="M410.971 255.576C396.868 256.198 386.146 271.15 386.146 271.15L404.135 296.436C404.135 296.436 417.627 281.264 418.85 272.936C420.163 264.246 419.462 255.195 410.971 255.576Z" fill="#00B3E8"/>
<path opacity="0.3" d="M410.971 255.576C396.868 256.198 386.146 271.15 386.146 271.15L404.135 296.436C404.135 296.436 417.627 281.264 418.85 272.936C420.163 264.246 419.462 255.195 410.971 255.576Z" fill="black"/>
<path d="M371.036 235.146L360.566 238.056L359.415 243.094L373.698 242.13L371.036 235.146Z" fill="#E4897B"/>
<path d="M370.046 221.178L371.899 222.262L371.054 236.892L366.916 237.213L370.046 221.178Z" fill="#E4897B"/>
<path d="M366.898 220.616L365.081 221.098L363.354 238.638L367.438 237.474L366.898 220.616Z" fill="#E4897B"/>
<path d="M397.893 260.333C397.893 260.333 392.37 264.969 429.05 346.026L482.027 327.302C474.31 303.561 470.064 288.71 466.377 235.668C458.491 236.582 450.676 238.131 442.991 240.304C434.791 242.481 426.741 245.311 418.904 248.773C408.866 253.509 397.893 260.333 397.893 260.333Z" fill="#00B3E8"/>
<path opacity="0.3" d="M397.893 260.333C397.893 260.333 392.37 264.969 429.05 346.026L482.027 327.302C474.31 303.561 470.064 288.71 466.377 235.668C458.491 236.582 450.676 238.131 442.991 240.304C434.791 242.481 426.741 245.311 418.904 248.773C408.866 253.509 397.893 260.333 397.893 260.333Z" fill="black"/>
<path d="M521.764 645.994L508.543 647.419L494.781 612.299L508.003 610.874L521.764 645.994Z" fill="#E4897B"/>
<path d="M494.781 612.319L501.869 630.421H515.666L508.021 610.874L494.781 612.319Z" fill="#CE6F64"/>
<path d="M641.067 573.506L633.53 586.27L604.639 570.877L612.195 558.133L641.067 573.506Z" fill="#E4897B"/>
<path d="M612.195 558.133L604.657 570.877L619.552 578.804L627.089 566.061L612.195 558.133Z" fill="#CE6F64"/>
<path d="M429.05 346.026C429.05 346.026 426.387 467.904 439.843 512.015C453.821 557.892 494.997 625.163 494.997 625.163L520.667 623.778C520.667 623.778 483.646 539.249 479.473 502.743C473.752 452.411 467.888 332.319 467.888 332.319L429.05 346.026Z" fill="#00B3E8"/>
<path opacity="0.6" d="M429.05 346.026C429.05 346.026 426.387 467.904 439.843 512.015C453.821 557.892 494.997 625.163 494.997 625.163L520.667 623.778C520.667 623.778 483.646 539.249 479.473 502.743C473.752 452.411 467.888 332.319 467.888 332.319L429.05 346.026Z" fill="black"/>
<path opacity="0.3" d="M472.277 410.808L453.389 362.643C453.389 362.643 455.565 418.173 473.68 432.462C473.194 425.238 472.727 417.953 472.277 410.808Z" fill="black"/>
<path d="M443.063 341.089C443.063 341.089 479.041 438.363 502.822 491.926C522.07 535.175 613.994 579.607 613.994 579.607L623.636 561.545C623.636 561.545 553.317 511.774 540.023 482.434C497.48 388.532 506.546 347.712 482.081 327.302L443.063 341.089Z" fill="#00B3E8"/>
<path opacity="0.6" d="M443.063 341.089C443.063 341.089 479.041 438.363 502.822 491.926C522.07 535.175 613.994 579.607 613.994 579.607L623.636 561.545C623.636 561.545 553.317 511.774 540.023 482.434C497.48 388.532 506.546 347.712 482.081 327.302L443.063 341.089Z" fill="black"/>
<path d="M630.345 584.885L631.335 567.867C631.351 567.571 631.461 567.291 631.646 567.077C631.83 566.864 632.077 566.731 632.342 566.703L644.611 565.639C644.919 565.624 645.226 565.682 645.513 565.809C645.8 565.935 646.06 566.128 646.275 566.374C646.491 566.62 646.657 566.915 646.764 567.237C646.871 567.56 646.916 567.905 646.895 568.248C646.445 574.269 645.978 577.078 645.528 584.604C645.276 589.24 645.294 599.535 644.916 605.917C644.539 612.299 638.854 612.259 638.494 609.549C636.875 597.508 633.835 591.829 631.047 587.594C630.527 586.816 630.278 585.853 630.345 584.885V584.885Z" fill="#263238"/>
<path d="M506.78 642.864H522.97C523.263 642.868 523.548 642.978 523.781 643.177C524.014 643.375 524.184 643.653 524.265 643.967L527.863 658.296C527.954 658.635 527.972 658.994 527.915 659.342C527.858 659.69 527.727 660.018 527.534 660.298C527.34 660.579 527.09 660.804 526.803 660.955C526.516 661.106 526.201 661.178 525.884 661.166C520.199 661.066 517.429 660.705 510.288 660.705C505.898 660.705 494.529 661.206 488.467 661.206C482.405 661.206 481.272 654.503 483.754 653.901C494.763 651.192 501.113 647.439 504.495 643.867C505.116 643.223 505.932 642.865 506.78 642.864V642.864Z" fill="#263238"/>
<path d="M432.018 210.903C432.953 220.095 435.922 236.451 442.973 240.304C442.973 240.304 443.351 249.817 428.96 254.914C413.13 260.493 418.904 248.893 418.904 248.893C426.891 243.535 424.643 236.471 421.225 230.29L432.018 210.903Z" fill="#E4897B"/>
<path d="M405.233 255.998C409.154 253.75 414.137 251.041 418.904 248.813C426.735 245.341 434.779 242.497 442.973 240.304C447.614 238.939 452.292 237.916 456.231 237.213C457.077 240.123 459.829 261.135 431.694 268.902C407.049 275.725 403.937 260.533 405.233 255.998Z" fill="#E4897B"/>
<path d="M417.879 249.395C417.639 249.394 417.408 249.294 417.231 249.114C417.067 248.918 416.977 248.66 416.979 248.392C416.978 248.13 417.068 247.878 417.231 247.689C417.404 247.509 417.633 247.408 417.87 247.408C418.107 247.408 418.335 247.509 418.508 247.689C418.676 247.876 418.773 248.128 418.778 248.392C418.774 248.662 418.677 248.92 418.508 249.114C418.339 249.296 418.113 249.397 417.879 249.395Z" fill="#F0F0F0"/>
<path d="M424.103 261.376C423.862 261.346 423.642 261.211 423.49 261C423.339 260.79 423.268 260.521 423.293 260.252V260.252C423.32 259.989 423.44 259.749 423.625 259.583C423.81 259.418 424.047 259.341 424.283 259.369C424.401 259.382 424.516 259.42 424.621 259.483C424.726 259.545 424.818 259.63 424.894 259.733C424.969 259.835 425.025 259.954 425.059 260.081C425.093 260.208 425.105 260.341 425.092 260.473C425.066 260.72 424.96 260.947 424.795 261.113C424.629 261.28 424.415 261.373 424.193 261.376H424.103ZM426.891 260.413C426.865 260.147 426.934 259.881 427.082 259.671C427.23 259.461 427.445 259.324 427.683 259.289V259.289C427.919 259.261 428.155 259.338 428.34 259.503C428.526 259.669 428.645 259.909 428.672 260.172C428.69 260.304 428.683 260.439 428.652 260.569C428.621 260.698 428.567 260.819 428.493 260.924C428.419 261.029 428.326 261.117 428.221 261.18C428.116 261.244 428 261.284 427.88 261.296V261.296C427.645 261.319 427.411 261.24 427.227 261.075C427.043 260.911 426.923 260.674 426.891 260.413V260.413ZM430.489 259.811C430.428 259.555 430.46 259.283 430.578 259.054C430.696 258.825 430.89 258.657 431.118 258.587C431.233 258.55 431.353 258.541 431.471 258.558C431.589 258.575 431.703 258.619 431.805 258.686C431.908 258.754 431.997 258.844 432.068 258.951C432.138 259.058 432.189 259.18 432.216 259.309V259.309C432.276 259.564 432.244 259.836 432.126 260.065C432.009 260.295 431.814 260.463 431.586 260.533H431.352C431.152 260.542 430.954 260.476 430.791 260.345C430.628 260.214 430.509 260.026 430.453 259.811H430.489ZM420.361 260.052C420.258 259.987 420.168 259.9 420.096 259.796C420.023 259.692 419.971 259.573 419.94 259.446C419.91 259.318 419.903 259.186 419.92 259.055C419.936 258.925 419.976 258.8 420.037 258.687C420.161 258.458 420.36 258.292 420.592 258.224C420.824 258.157 421.07 258.193 421.278 258.326C421.381 258.394 421.469 258.484 421.54 258.59C421.611 258.697 421.662 258.818 421.69 258.947C421.719 259.076 421.724 259.209 421.706 259.34C421.688 259.472 421.646 259.597 421.584 259.71C421.505 259.86 421.392 259.983 421.256 260.067C421.12 260.152 420.966 260.195 420.811 260.192V260.192C420.64 260.201 420.471 260.152 420.325 260.052H420.361ZM433.925 258.647C433.877 258.526 433.851 258.395 433.849 258.263C433.847 258.13 433.868 257.999 433.912 257.876C433.955 257.753 434.02 257.641 434.102 257.545C434.185 257.45 434.283 257.375 434.392 257.322V257.322C434.501 257.269 434.618 257.24 434.737 257.238C434.855 257.235 434.973 257.259 435.083 257.308C435.194 257.356 435.294 257.428 435.38 257.52C435.465 257.613 435.533 257.722 435.58 257.844C435.671 258.089 435.673 258.365 435.586 258.612C435.499 258.859 435.329 259.059 435.112 259.169V259.169C434.994 259.199 434.871 259.199 434.752 259.169V259.169C434.578 259.184 434.404 259.143 434.251 259.051C434.098 258.958 433.972 258.818 433.889 258.647H433.925ZM437.055 256.8C436.987 256.691 436.939 256.568 436.913 256.438C436.888 256.308 436.887 256.174 436.908 256.043C436.93 255.913 436.975 255.788 437.04 255.677C437.105 255.566 437.19 255.47 437.289 255.396V255.396C437.485 255.248 437.725 255.193 437.957 255.242C438.189 255.291 438.395 255.44 438.53 255.656V255.656C438.598 255.763 438.647 255.883 438.674 256.011C438.7 256.138 438.703 256.271 438.683 256.399C438.663 256.528 438.62 256.652 438.556 256.762C438.493 256.872 438.411 256.967 438.314 257.041C438.16 257.158 437.978 257.221 437.792 257.222V257.222C437.648 257.224 437.505 257.187 437.376 257.114C437.248 257.04 437.137 256.933 437.055 256.8V256.8ZM417.591 256.8C417.539 256.681 417.509 256.551 417.503 256.418C417.497 256.285 417.515 256.153 417.555 256.027C417.595 255.902 417.657 255.787 417.737 255.689C417.818 255.591 417.915 255.512 418.023 255.456V255.456C418.127 255.398 418.242 255.364 418.358 255.356C418.475 255.348 418.592 255.366 418.703 255.409C418.813 255.452 418.915 255.519 419.002 255.606C419.089 255.694 419.16 255.799 419.21 255.917V255.917C419.262 256.036 419.293 256.165 419.3 256.297C419.308 256.428 419.292 256.561 419.253 256.686C419.215 256.81 419.155 256.926 419.076 257.025C418.998 257.124 418.902 257.204 418.796 257.262C418.677 257.323 418.549 257.358 418.418 257.362V257.362C418.247 257.367 418.078 257.316 417.931 257.216C417.784 257.117 417.666 256.972 417.591 256.8ZM439.951 254.472C439.867 254.381 439.801 254.272 439.755 254.151C439.71 254.03 439.686 253.901 439.686 253.77C439.686 253.639 439.71 253.51 439.755 253.389C439.801 253.268 439.867 253.159 439.951 253.068V253.068C440.032 252.972 440.129 252.895 440.238 252.843C440.346 252.79 440.463 252.763 440.581 252.763C440.699 252.763 440.815 252.79 440.924 252.843C441.032 252.895 441.129 252.972 441.21 253.068C441.294 253.161 441.361 253.272 441.407 253.394C441.453 253.516 441.476 253.648 441.476 253.78C441.476 253.912 441.453 254.044 441.407 254.166C441.361 254.288 441.294 254.399 441.21 254.492C441.125 254.595 441.022 254.676 440.908 254.731C440.793 254.786 440.669 254.815 440.545 254.814V254.814C440.426 254.79 440.312 254.741 440.21 254.669C440.108 254.597 440.02 254.503 439.951 254.392V254.472ZM416.673 252.466C416.666 252.334 416.682 252.202 416.721 252.077C416.759 251.952 416.82 251.837 416.898 251.738C416.977 251.639 417.072 251.558 417.178 251.501C417.285 251.443 417.401 251.41 417.519 251.402C417.759 251.391 417.994 251.486 418.172 251.666C418.35 251.846 418.458 252.097 418.472 252.365V252.365C418.477 252.497 418.459 252.629 418.418 252.752C418.377 252.876 418.315 252.99 418.234 253.087C418.154 253.184 418.058 253.262 417.95 253.317C417.843 253.372 417.727 253.404 417.609 253.409V253.409C417.491 253.414 417.373 253.393 417.262 253.348C417.151 253.302 417.049 253.233 416.962 253.143C416.875 253.054 416.805 252.946 416.755 252.827C416.706 252.707 416.678 252.577 416.673 252.445V252.466ZM442.272 251.342C442.169 251.274 442.081 251.184 442.01 251.077C441.939 250.97 441.888 250.849 441.86 250.72C441.831 250.592 441.826 250.458 441.844 250.327C441.862 250.196 441.904 250.07 441.966 249.957C442.095 249.734 442.297 249.577 442.528 249.517C442.76 249.457 443.003 249.5 443.207 249.636C443.409 249.777 443.555 250 443.612 250.259C443.669 250.518 443.633 250.791 443.513 251.021C443.43 251.166 443.315 251.286 443.18 251.37C443.045 251.454 442.894 251.499 442.739 251.502V251.502C442.571 251.492 442.409 251.429 442.272 251.322V251.342ZM444.07 247.81C443.96 247.765 443.858 247.696 443.771 247.607C443.685 247.518 443.615 247.41 443.566 247.29C443.518 247.171 443.491 247.041 443.488 246.91C443.485 246.778 443.506 246.648 443.549 246.525C443.589 246.401 443.65 246.288 443.73 246.191C443.81 246.095 443.907 246.017 444.014 245.963C444.122 245.909 444.238 245.879 444.355 245.875C444.473 245.872 444.59 245.895 444.7 245.943V245.943C444.812 245.99 444.914 246.061 445 246.152C445.087 246.243 445.157 246.352 445.205 246.474C445.254 246.595 445.28 246.726 445.283 246.859C445.286 246.992 445.265 247.124 445.222 247.248V247.248C445.158 247.439 445.043 247.604 444.891 247.72C444.739 247.835 444.56 247.894 444.376 247.89C444.244 247.898 444.113 247.863 443.998 247.789L444.07 247.81ZM445.204 244.017C444.971 243.954 444.768 243.795 444.638 243.571C444.507 243.346 444.459 243.075 444.502 242.812V242.812C444.528 242.683 444.576 242.56 444.644 242.452C444.712 242.343 444.799 242.251 444.899 242.18C445 242.109 445.112 242.061 445.229 242.039C445.346 242.016 445.466 242.02 445.581 242.05C445.697 242.076 445.806 242.128 445.903 242.202C446.001 242.276 446.083 242.371 446.147 242.481C446.211 242.591 446.254 242.715 446.274 242.844C446.295 242.973 446.291 243.106 446.265 243.234V243.234C446.221 243.459 446.109 243.66 445.949 243.806C445.789 243.952 445.59 244.033 445.384 244.037H445.204V244.017Z" fill="#F0F0F0"/>
<path d="M445.851 239.963C445.732 239.969 445.613 239.947 445.501 239.898C445.39 239.85 445.289 239.776 445.204 239.682C445.119 239.587 445.053 239.474 445.01 239.35C444.967 239.226 444.947 239.093 444.952 238.959C444.951 238.698 445.041 238.445 445.204 238.257C445.288 238.166 445.385 238.091 445.492 238.036C445.659 237.966 445.84 237.95 446.015 237.989C446.19 238.028 446.351 238.121 446.481 238.257C446.649 238.443 446.746 238.695 446.751 238.959C446.743 239.229 446.647 239.486 446.481 239.682C446.396 239.767 446.299 239.835 446.193 239.883C446.086 239.936 445.969 239.964 445.851 239.963V239.963Z" fill="#F0F0F0"/>
<path d="M427.611 218.79L421.225 230.189C422.049 231.619 422.754 233.131 423.329 234.705C426.477 232.999 430.525 227.962 429.769 223.968C429.333 222.112 428.602 220.358 427.611 218.79V218.79Z" fill="#CE6F64"/>
<path d="M428.276 190.574C432.791 204.863 434.986 210.803 431.388 220.938C425.992 236.17 409.262 239.26 401.005 226.758C393.576 215.519 387.423 194.025 397.533 182.707C399.752 180.195 402.51 178.358 405.545 177.371C408.581 176.384 411.791 176.28 414.873 177.068C417.954 177.857 420.803 179.512 423.149 181.876C425.495 184.239 427.26 187.234 428.276 190.574V190.574Z" fill="#E4897B"/>
<path d="M409.604 175.361C406.78 180.218 418.274 208.314 435.13 202.715C443.567 199.905 440.725 193.624 435.76 188.045C429.772 181.426 421.995 177.194 413.633 176.004L409.604 175.361Z" fill="#263238"/>
<path d="M410.251 176.164C405.287 175.622 388.791 179.014 389.51 197.718C389.51 197.718 396.364 190.854 415.468 189.69L410.251 176.164Z" fill="#263238"/>
<path d="M434.986 202.113C435.364 203.504 435.492 204.965 435.362 206.412C435.232 207.858 434.848 209.262 434.231 210.542C432.576 213.954 429.248 212.95 427.629 209.759C426.172 206.869 425.29 201.611 427.953 199.263C428.547 198.769 429.243 198.447 429.977 198.326C430.711 198.206 431.46 198.291 432.158 198.573C432.855 198.856 433.479 199.327 433.972 199.945C434.466 200.563 434.814 201.308 434.986 202.113V202.113Z" fill="#E4897B"/>
<path d="M481.883 323.549L485.769 328.004C486.075 328.346 485.769 328.928 485.157 329.148L429.553 348.776C429.068 348.936 428.6 348.776 428.474 348.495L426.495 343.357C426.351 343.016 426.693 342.554 427.215 342.374L480.894 323.429C481.054 323.352 481.229 323.322 481.403 323.343C481.576 323.364 481.742 323.435 481.883 323.549V323.549Z" fill="#00B3E8"/>
<path d="M410.809 203.318C411.241 204.462 411.043 205.626 410.395 205.947C409.748 206.268 408.83 205.586 408.398 204.462C407.967 203.338 408.165 202.153 408.83 201.832C409.496 201.511 410.377 202.173 410.809 203.318Z" fill="#263238"/>
<path d="M399.278 208.756C399.71 209.88 399.53 211.064 398.864 211.386C398.199 211.707 397.299 211.024 396.868 209.9C396.436 208.776 396.634 207.592 397.299 207.271C397.965 206.95 398.882 207.612 399.278 208.756Z" fill="#263238"/>
<path d="M397.659 207.19L394.907 207.572C394.907 207.572 396.976 209.097 397.659 207.19Z" fill="#263238"/>
<path d="M403.092 209.258C403.167 212.277 402.877 215.295 402.228 218.228C402.902 218.397 403.602 218.398 404.276 218.231C404.951 218.065 405.584 217.735 406.132 217.265L403.092 209.258Z" fill="#DE5753"/>
<path d="M411.277 220.075C411.214 220.075 411.153 220.054 411.102 220.015C411.05 219.975 411.011 219.919 410.989 219.854C410.971 219.811 410.961 219.764 410.959 219.716C410.957 219.668 410.964 219.62 410.979 219.575C410.995 219.531 411.017 219.49 411.047 219.455C411.076 219.42 411.112 219.392 411.151 219.372C412.429 218.807 413.57 217.912 414.48 216.761C415.39 215.61 416.043 214.236 416.385 212.75C416.392 212.702 416.407 212.657 416.43 212.617C416.453 212.577 416.483 212.542 416.518 212.516C416.554 212.489 416.594 212.471 416.636 212.463C416.679 212.455 416.722 212.457 416.763 212.469C416.806 212.476 416.847 212.493 416.884 212.518C416.921 212.543 416.953 212.577 416.978 212.616C417.003 212.655 417.021 212.7 417.03 212.747C417.04 212.794 417.041 212.843 417.033 212.89C416.671 214.494 415.971 215.979 414.992 217.221C414.012 218.464 412.782 219.428 411.403 220.035L411.277 220.075Z" fill="#263238"/>
<path d="M412.446 197.598C412.331 197.602 412.218 197.567 412.122 197.498C411.43 197.022 410.647 196.737 409.836 196.668C409.026 196.598 408.212 196.745 407.463 197.096C407.386 197.14 407.303 197.166 407.217 197.173C407.131 197.181 407.045 197.169 406.963 197.139C406.881 197.109 406.805 197.062 406.74 196.999C406.674 196.937 406.621 196.861 406.582 196.775C406.543 196.689 406.519 196.596 406.513 196.5C406.506 196.404 406.516 196.308 406.543 196.217C406.57 196.125 406.612 196.041 406.668 195.968C406.724 195.895 406.793 195.835 406.869 195.791C407.814 195.335 408.843 195.139 409.87 195.219C410.897 195.3 411.891 195.654 412.77 196.253C412.917 196.35 413.024 196.507 413.068 196.691C413.112 196.875 413.089 197.071 413.004 197.237C412.952 197.35 412.872 197.445 412.773 197.509C412.674 197.573 412.56 197.604 412.446 197.598Z" fill="#263238"/>
<path d="M391.597 205.365H391.489C391.405 205.348 391.325 205.313 391.253 205.261C391.181 205.21 391.119 205.143 391.071 205.065C391.023 204.986 390.988 204.898 390.971 204.805C390.953 204.712 390.952 204.616 390.967 204.522C391.139 203.38 391.555 202.302 392.182 201.379C392.809 200.456 393.626 199.716 394.565 199.223C394.644 199.176 394.732 199.147 394.821 199.139C394.911 199.131 395.001 199.144 395.086 199.178C395.171 199.211 395.249 199.264 395.315 199.333C395.381 199.401 395.433 199.485 395.468 199.577C395.503 199.67 395.521 199.77 395.519 199.87C395.518 199.971 395.498 200.07 395.46 200.161C395.423 200.252 395.368 200.334 395.301 200.401C395.234 200.467 395.154 200.517 395.069 200.548C394.342 200.96 393.714 201.559 393.235 202.295C392.756 203.032 392.442 203.884 392.316 204.783C392.282 204.962 392.189 205.12 392.056 205.228C391.924 205.335 391.76 205.384 391.597 205.365V205.365Z" fill="#263238"/>
<path d="M476.631 249.335C477.926 251.041 479.509 252.967 480.984 254.794C482.459 256.62 484.06 258.426 485.643 260.192C488.791 263.764 492.029 267.236 495.429 270.467C498.829 273.698 502.265 276.849 505.863 279.659C506.744 280.401 507.661 281.023 508.597 281.666C509.532 282.308 510.396 283.01 511.349 283.673C512.303 284.335 513.274 284.977 514.119 285.479L515.271 286.141L516.53 286.703C518.347 287.438 520.219 287.988 522.125 288.349C524.18 288.705 526.252 288.926 528.331 289.011C532.713 289.122 537.096 288.867 541.445 288.248C545.937 287.656 550.399 286.798 554.81 285.679C559.254 284.656 563.805 283.311 568.05 281.927L570.623 289.111C566.248 291.382 561.768 293.391 557.203 295.132C552.604 296.869 547.926 298.336 543.189 299.527C538.323 300.76 533.369 301.519 528.385 301.795C523.026 302.128 517.656 301.449 512.5 299.788L510.468 298.985L508.453 297.982C507.194 297.319 506.186 296.677 505.053 295.975C503.92 295.272 502.84 294.65 501.779 293.968C500.718 293.285 499.602 292.583 498.577 291.82C494.404 288.887 490.397 285.67 486.578 282.187C482.783 278.736 479.149 275.083 475.677 271.27C473.95 269.343 472.259 267.377 470.604 265.37C468.931 263.363 467.384 261.356 465.711 259.048L476.631 249.335Z" fill="#E4897B"/>
<path d="M630.328 593.675C630.154 593.693 629.979 593.693 629.806 593.675C629.611 593.646 629.427 593.558 629.275 593.42C629.122 593.282 629.007 593.099 628.942 592.892C628.313 591.066 631.263 586.631 631.605 586.129C631.642 586.075 631.693 586.035 631.75 586.014C631.808 585.992 631.87 585.991 631.929 586.009C631.992 586.02 632.05 586.054 632.095 586.104C632.14 586.154 632.17 586.219 632.18 586.29C632.486 588.296 632.81 591.869 631.551 593.213C631.384 593.377 631.191 593.502 630.981 593.581C630.771 593.66 630.549 593.692 630.328 593.675ZM631.659 587.213C630.525 589.019 629.212 591.608 629.536 592.571C629.536 592.691 629.662 592.832 629.932 592.892C630.132 592.961 630.345 592.971 630.549 592.922C630.754 592.873 630.944 592.766 631.101 592.611C631.785 591.949 631.982 589.942 631.659 587.213Z" fill="#00B3E8"/>
<path d="M627.071 589.943C626.94 589.964 626.807 589.964 626.676 589.943C626.429 589.862 626.214 589.692 626.064 589.459C625.914 589.227 625.838 588.944 625.848 588.658C625.829 588.38 625.865 588.1 625.956 587.839C626.046 587.579 626.188 587.344 626.37 587.153C627.773 585.607 631.767 585.868 631.874 585.868C631.93 585.877 631.983 585.9 632.03 585.934C632.076 585.969 632.116 586.015 632.144 586.069C632.175 586.123 632.191 586.186 632.191 586.249C632.191 586.313 632.175 586.376 632.144 586.43C630.883 588.238 629.084 589.484 627.071 589.943V589.943ZM631.101 586.53C629.606 586.391 628.109 586.777 626.82 587.634C626.708 587.756 626.621 587.903 626.565 588.066C626.509 588.229 626.485 588.404 626.496 588.578C626.496 589.039 626.694 589.16 626.838 589.2C627.773 589.481 630.094 587.915 631.209 586.53H631.101Z" fill="#00B3E8"/>
<path d="M499.584 645.854C498.476 645.944 497.371 645.649 496.418 645.011C496.167 644.813 495.962 644.552 495.818 644.248C495.674 643.945 495.596 643.608 495.591 643.265C495.568 643.076 495.593 642.884 495.663 642.71C495.733 642.537 495.845 642.388 495.986 642.282C497.48 641.178 503.002 643.968 504.099 644.55C504.161 644.58 504.211 644.631 504.244 644.697C504.276 644.762 504.289 644.837 504.279 644.911C504.271 644.986 504.242 645.057 504.197 645.115C504.153 645.172 504.093 645.213 504.028 645.232C502.57 645.614 501.081 645.822 499.584 645.854V645.854ZM496.994 642.723C496.775 642.71 496.556 642.765 496.364 642.884C496.314 642.919 496.275 642.971 496.253 643.032C496.23 643.093 496.225 643.16 496.238 643.225C496.237 643.461 496.288 643.694 496.385 643.903C496.482 644.113 496.623 644.293 496.796 644.429C498.073 645.513 501.131 645.112 502.894 644.75C501.035 643.734 499.044 643.05 496.994 642.723V642.723Z" fill="#00B3E8"/>
<path d="M503.956 645.233H503.83C502.031 644.39 498.307 641.098 498.433 639.372C498.433 639.011 498.703 638.529 499.548 638.429C502.768 637.967 504.135 644.45 504.207 644.811C504.218 644.865 504.218 644.921 504.207 644.974C504.196 645.028 504.174 645.078 504.142 645.121C504.111 645.163 504.071 645.197 504.027 645.22C503.982 645.243 503.933 645.254 503.884 645.253L503.956 645.233ZM499.908 639.111H499.692C499.35 639.111 499.17 639.251 499.152 639.432C499.027 640.436 501.581 643.045 503.452 644.189C503.02 642.624 501.815 639.111 499.908 639.111Z" fill="#00B3E8"/>
<path d="M571.378 279.097L567.492 268.38L560.98 282.107C560.98 282.107 564.974 289.673 570.64 289.111L571.522 286.322C572.258 283.973 572.207 281.407 571.378 279.097V279.097Z" fill="#E4897B"/>
<path d="M409.136 201.752L406.402 202.133C406.402 202.133 408.471 203.659 409.136 201.752Z" fill="#263238"/>
<path d="M522.484 624.621L491.849 626.427L487.424 616.955L520.667 615.731L522.484 624.621Z" fill="#00B3E8"/>
<path opacity="0.7" d="M522.484 624.621L491.849 626.427L487.424 616.955L520.667 615.731L522.484 624.621Z" fill="white"/>
<path d="M625.848 559.177L613.49 581.794L606.978 580.289L618.563 553.738L625.848 559.177Z" fill="#00B3E8"/>
<path opacity="0.7" d="M625.848 559.177L613.49 581.794L606.978 580.289L618.563 553.738L625.848 559.177Z" fill="white"/>
<path d="M476.63 332.801L478.07 332.299C478.357 332.199 478.519 331.958 478.447 331.757L475.767 325.034C475.767 324.834 475.389 324.773 475.101 324.874L473.662 325.375C473.374 325.375 473.213 325.717 473.284 325.917L475.911 332.56C475.983 332.821 476.289 332.901 476.63 332.801Z" fill="#00B3E8"/>
<path d="M433.745 347.913L435.184 347.411C435.472 347.411 435.652 347.07 435.58 346.869L432.953 340.226C432.863 340.026 432.576 339.966 432.288 340.066L430.849 340.568C430.561 340.568 430.399 340.909 430.471 341.109L433.097 347.752C433.169 347.933 433.457 348.013 433.745 347.913Z" fill="#00B3E8"/>
<path d="M455.17 340.367L456.609 339.845C456.879 339.845 457.058 339.504 456.987 339.303L454.36 332.681C454.36 332.48 453.982 332.4 453.695 332.5L452.255 333.002C451.968 333.102 451.806 333.363 451.878 333.544L454.504 340.186C454.576 340.387 454.882 340.467 455.17 340.367Z" fill="#00B3E8"/>
<path opacity="0.6" d="M476.63 332.801L478.07 332.299C478.357 332.199 478.519 331.958 478.447 331.757L475.767 325.034C475.767 324.834 475.389 324.773 475.101 324.874L473.662 325.375C473.374 325.375 473.213 325.717 473.284 325.917L475.911 332.56C475.983 332.821 476.289 332.901 476.63 332.801Z" fill="black"/>
<path opacity="0.6" d="M433.745 347.913L435.184 347.411C435.472 347.411 435.652 347.07 435.58 346.869L432.953 340.226C432.863 340.026 432.576 339.966 432.288 340.066L430.849 340.568C430.561 340.568 430.399 340.909 430.471 341.109L433.097 347.752C433.169 347.933 433.457 348.013 433.745 347.913Z" fill="black"/>
<path opacity="0.6" d="M455.17 340.367L456.609 339.845C456.879 339.845 457.058 339.504 456.987 339.303L454.36 332.681C454.36 332.48 453.982 332.4 453.695 332.5L452.255 333.002C451.968 333.102 451.806 333.363 451.878 333.544L454.504 340.186C454.576 340.387 454.882 340.467 455.17 340.367Z" fill="black"/>
<path d="M466.431 235.668C472.241 235.668 484.42 253.73 484.42 253.73L468.463 277.451C468.463 277.451 458.282 262.641 458.336 254.192C458.408 245.422 459.775 235.748 466.431 235.668Z" fill="#00B3E8"/>
<path opacity="0.3" d="M466.431 235.668C472.241 235.668 484.42 253.73 484.42 253.73L468.463 277.451C468.463 277.451 458.282 262.641 458.336 254.192C458.408 245.422 459.775 235.748 466.431 235.668Z" fill="black"/>
<path d="M562.15 267.818L562.006 278.615C562.007 279.111 562.145 279.595 562.401 280L565.909 285.479L567.492 268.38L565.693 266.273C565.406 265.959 565.044 265.745 564.65 265.655C564.257 265.566 563.848 265.605 563.474 265.768C563.1 265.931 562.776 266.212 562.541 266.575C562.306 266.939 562.17 267.371 562.15 267.818Z" fill="#E4897B"/>
<path d="M252.974 114.152V599.816H520.829V114.152H252.974ZM497.623 580.349H260.44V133.598H497.587L497.623 580.349Z" fill="#00B3E8"/>
<path opacity="0.6" d="M252.974 114.152V599.816H520.829V114.152H252.974ZM497.623 580.349H260.44V133.598H497.587L497.623 580.349Z" fill="white"/>
<path d="M260.44 133.598H257.939V580.35H260.44V133.598Z" fill="white"/>
<path d="M260.44 133.598H257.939V580.35H260.44V133.598Z" fill="#F0F0F0"/>
<path d="M548.91 0.462067H65.4583C61.2895 0.47254 57.2931 2.31924 54.3386 5.60033C51.3841 8.88142 49.7105 13.3314 49.6821 17.9821V643.626C49.6963 648.288 51.3636 652.753 54.3196 656.047C57.2757 659.341 61.2802 661.196 65.4583 661.207H548.91C553.086 661.196 557.089 659.34 560.042 656.046C562.995 652.751 564.658 648.286 564.668 643.626V17.9821C564.644 13.3333 562.975 8.88322 560.023 5.60157C557.071 2.31991 553.077 0.472581 548.91 0.462067V0.462067ZM260.44 133.598H497.587V580.35H260.44V133.598Z" fill="#00B3E8"/>
<path opacity="0.5" d="M548.91 0.462067H65.4583C61.2895 0.47254 57.2931 2.31924 54.3386 5.60033C51.3841 8.88142 49.7105 13.3314 49.6821 17.9821V643.626C49.6963 648.288 51.3636 652.753 54.3196 656.047C57.2757 659.341 61.2802 661.196 65.4583 661.207H548.91C553.086 661.196 557.089 659.34 560.042 656.046C562.995 652.751 564.658 648.286 564.668 643.626V17.9821C564.644 13.3333 562.975 8.88322 560.023 5.60157C557.071 2.31991 553.077 0.472581 548.91 0.462067V0.462067ZM260.44 133.598H497.587V580.35H260.44V133.598Z" fill="black"/>
<path d="M544.718 0.462067H61.2669C57.0981 0.47254 53.1017 2.31924 50.1472 5.60033C47.1926 8.88142 45.5191 13.3314 45.4907 17.9821V643.626C45.5049 648.288 47.1722 652.753 50.1282 656.047C53.0843 659.341 57.0888 661.196 61.2669 661.207H544.718C548.893 661.191 552.893 659.333 555.845 656.04C558.798 652.746 560.462 648.284 560.477 643.626V17.9821C560.448 13.3349 558.777 8.8879 555.827 5.60737C552.876 2.32685 548.884 0.47782 544.718 0.462067ZM260.494 133.598H497.587V580.35H260.44L260.494 133.598Z" fill="#00B3E8"/>
<path opacity="0.2" d="M544.718 0.462067H61.2669C57.0981 0.47254 53.1017 2.31924 50.1472 5.60033C47.1926 8.88142 45.5191 13.3314 45.4907 17.9821V643.626C45.5049 648.288 47.1722 652.753 50.1282 656.047C53.0843 659.341 57.0888 661.196 61.2669 661.207H544.718C548.893 661.191 552.893 659.333 555.845 656.04C558.798 652.746 560.462 648.284 560.477 643.626V17.9821C560.448 13.3349 558.777 8.8879 555.827 5.60737C552.876 2.32685 548.884 0.47782 544.718 0.462067ZM260.494 133.598H497.587V580.35H260.44L260.494 133.598Z" fill="black"/>
<path d="M45.4907 45.938V643.627C45.5049 648.288 47.1722 652.753 50.1282 656.047C53.0843 659.341 57.0888 661.196 61.2669 661.207H544.718C548.893 661.191 552.893 659.334 555.845 656.04C558.798 652.747 560.462 648.284 560.477 643.627V45.938H45.4907ZM260.44 133.598H497.587V580.35H260.44V133.598Z" fill="#00B3E8"/>
<path opacity="0.6" d="M45.4907 45.938V643.627C45.5049 648.288 47.1722 652.753 50.1282 656.047C53.0843 659.341 57.0888 661.196 61.2669 661.207H544.718C548.893 661.191 552.893 659.334 555.845 656.04C558.798 652.747 560.462 648.284 560.477 643.627V45.938H45.4907ZM260.44 133.598H497.587V580.35H260.44V133.598Z" fill="white"/>
<path d="M48.4948 69.3181V637.826H557.58V69.3181H48.4948ZM497.677 580.35H260.44V133.598H497.587L497.677 580.35Z" fill="white"/>
<path opacity="0.76" d="M525.884 32.6725C530.513 32.6725 534.267 28.4854 534.267 23.3204C534.267 18.1554 530.513 13.9684 525.884 13.9684C521.254 13.9684 517.501 18.1554 517.501 23.3204C517.501 28.4854 521.254 32.6725 525.884 32.6725Z" fill="#00B3E8"/>
<path opacity="0.76" d="M496.185 32.6725C500.814 32.6725 504.567 28.4854 504.567 23.3204C504.567 18.1554 500.814 13.9684 496.185 13.9684C491.555 13.9684 487.802 18.1554 487.802 23.3204C487.802 28.4854 491.555 32.6725 496.185 32.6725Z" fill="#00B3E8"/>
<path opacity="0.76" d="M458.102 23.3204C458.102 25.1701 458.593 26.9782 459.515 28.5162C460.436 30.0541 461.745 31.2528 463.277 31.9606C464.808 32.6685 466.494 32.8537 468.12 32.4928C469.746 32.132 471.24 31.2413 472.412 29.9333C473.585 28.6254 474.383 26.9591 474.706 25.1449C475.03 23.3308 474.864 21.4504 474.229 19.7415C473.595 18.0327 472.52 16.5721 471.142 15.5445C469.763 14.5168 468.143 13.9684 466.485 13.9684C464.261 13.9684 462.129 14.9537 460.557 16.7075C458.985 18.4614 458.102 20.8401 458.102 23.3204Z" fill="#00B3E8"/>
<path d="M45.5084 47.102L560.476 47.102V44.7536L45.5084 44.7536V47.102Z" fill="#00B3E8"/>
<path d="M570.964 114.152H569.165V100.104H570.964V114.152ZM570.964 87.8818H569.165V42.0647H570.964V87.8818Z" fill="#00B3E8"/>
<path opacity="0.4" d="M570.964 114.152H569.165V100.104H570.964V114.152ZM570.964 87.8818H569.165V42.0647H570.964V87.8818Z" fill="black"/>
<path d="M133.096 258.366H183.807V230.25H133.096V258.366Z" fill="#00B3E8"/>
<path opacity="0.6" d="M133.096 258.366H183.807V230.25H133.096V258.366Z" fill="white"/>
<path d="M96.8668 443.982H190.697V415.866H96.8668V443.982Z" fill="#00B3E8"/>
<path opacity="0.6" d="M96.8668 443.982H190.697V415.866H96.8668V443.982Z" fill="white"/>
<path d="M12.5168 119.149L206.563 119.149V91.0325L12.5168 91.0325V119.149Z" fill="#00B3E8"/>
<path opacity="0.6" d="M12.5168 119.149L206.563 119.149V91.0325L12.5168 91.0325V119.149Z" fill="white"/>
<path d="M12.517 165.548L169.308 165.548V137.432L12.517 137.432V165.548Z" fill="#00B3E8"/>
<path opacity="0.6" d="M12.517 165.548L169.308 165.548V137.432L12.517 137.432V165.548Z" fill="white"/>
<path d="M12.5168 211.947L190.697 211.947V183.831L12.5168 183.831V211.947Z" fill="#00B3E8"/>
<path opacity="0.6" d="M12.5168 211.947L190.697 211.947V183.831L12.5168 183.831V211.947Z" fill="white"/>
<path d="M12.517 258.366H112.032V230.25H12.517V258.366Z" fill="#00B3E8"/>
<path opacity="0.6" d="M12.517 258.366H112.032V230.25H12.517V258.366Z" fill="white"/>
<path d="M12.5168 304.765H190.697V276.649H12.5168V304.765Z" fill="#00B3E8"/>
<path opacity="0.6" d="M12.5168 304.765H190.697V276.649H12.5168V304.765Z" fill="white"/>
<path d="M12.5168 351.164H206.563V323.048H12.5168V351.164Z" fill="#00B3E8"/>
<path opacity="0.6" d="M12.5168 351.164H206.563V323.048H12.5168V351.164Z" fill="white"/>
<path d="M12.5171 397.583H149.305V369.467H12.5171V397.583Z" fill="#00B3E8"/>
<path opacity="0.6" d="M12.5171 397.583H149.305V369.467H12.5171V397.583Z" fill="white"/>
<path d="M12.517 443.982H75.8199V415.866H12.517V443.982Z" fill="#00B3E8"/>
<path opacity="0.6" d="M12.517 443.982H75.8199V415.866H12.517V443.982Z" fill="white"/>
<path d="M91.9134 539.562C95.8406 513.437 80.0405 488.706 56.6228 484.325C33.2052 479.944 11.0379 497.571 7.1107 523.696C3.18354 549.821 18.9837 574.551 42.4013 578.933C65.8189 583.314 87.9862 565.687 91.9134 539.562Z" fill="#00B3E8"/>
<path opacity="0.6" d="M91.9134 539.562C95.8406 513.437 80.0405 488.706 56.6228 484.325C33.2052 479.944 11.0379 497.571 7.1107 523.696C3.18354 549.821 18.9837 574.551 42.4013 578.933C65.8189 583.314 87.9862 565.687 91.9134 539.562Z" fill="white"/>
<path d="M53.8914 523.294C43.6737 519.802 37.3417 507.399 37.3417 507.399C37.3417 507.399 34.1216 507.199 33.9597 510.45C33.8973 512.643 34.2422 514.828 34.9728 516.865C35.7034 518.903 36.8039 520.75 38.2051 522.29L33.2942 521.989C31.5425 521.884 29.787 522.094 28.0954 522.611L26.4584 523.093C25.1089 523.512 23.9585 524.5 23.2502 525.849C22.5419 527.197 22.3312 528.8 22.6627 530.318L25.1092 540.974C25.797 544.192 27.539 547.005 29.9924 548.862C32.4458 550.719 35.4332 551.485 38.367 551.009C43.3679 550.186 51.1571 549.002 52.5063 548.641L56.1041 548.32L57.3093 524.418L53.8914 523.294Z" fill="white"/>
<path d="M69.9016 519.983H56.1401C55.0671 519.983 54.1973 520.953 54.1973 522.15V549.283C54.1973 550.48 55.0671 551.451 56.1401 551.451H69.9016C70.9745 551.451 71.8444 550.48 71.8444 549.283V522.15C71.8444 520.953 70.9745 519.983 69.9016 519.983Z" fill="#00B3E8"/>
<path d="M188.922 565.548C205.712 546.816 205.712 516.447 188.922 497.716C172.132 478.985 144.91 478.985 128.12 497.716C111.33 516.447 111.33 546.816 128.12 565.548C144.91 584.279 172.132 584.279 188.922 565.548Z" fill="#00B3E8"/>
<path opacity="0.6" d="M188.922 565.548C205.712 546.816 205.712 516.447 188.922 497.716C172.132 478.985 144.91 478.985 128.12 497.716C111.33 516.447 111.33 546.816 128.12 565.548C144.91 584.279 172.132 584.279 188.922 565.548Z" fill="white"/>
<path d="M179.94 514.484C178.533 512.914 176.863 511.668 175.025 510.819C173.187 509.969 171.217 509.532 169.227 509.532C167.238 509.532 165.267 509.969 163.429 510.819C161.591 511.668 159.921 512.914 158.515 514.484C155.674 511.314 151.82 509.533 147.802 509.533C143.784 509.533 139.931 511.314 137.09 514.484C134.249 517.653 132.653 521.952 132.653 526.435C132.653 530.917 134.249 535.216 137.09 538.385L158.515 562.287L179.94 538.385C182.773 535.211 184.363 530.914 184.363 526.435C184.363 521.955 182.773 517.658 179.94 514.484V514.484Z" fill="#00B3E8"/>
<path d="M240.526 114.152V599.816H515.001V114.152H240.526ZM497.587 580.349H260.44V133.598H497.587V580.349Z" fill="#00B3E8"/>
<path opacity="0.8" d="M240.526 114.152V599.816H515.001V114.152H240.526ZM497.587 580.349H260.44V133.598H497.587V580.349Z" fill="white"/>
</svg>
