<svg width="36" height="36" fill="none" xmlns="http://www.w3.org/2000/svg">
  <g clip-path="url(#a)">
    <path d="M34.8 6H36V4.8h-1.2V6Zm0 24v1.2H36V30h-1.2ZM24.662 11.873a1.2 1.2 0 0 0 1.076-2.146l-1.076 2.146ZM15.614 6l.536-1.073-.704-.35-.602.504.768.919h.002ZM1.222 18l-.768-.922a1.2 1.2 0 0 0 0 1.846L1.222 18Zm14.39 12-.768.922.602.504.704-.35-.538-1.074V30Zm10.126-3.727a1.2 1.2 0 0 0-1.076-2.146l1.076 2.146ZM13.214 19.2h1.2v-2.4h-1.2v2.4ZM24.007 18A10.795 10.795 0 0 1 34.8 7.2V4.8A13.196 13.196 0 0 0 21.607 18h2.4ZM33.6 6v24H36V6h-2.4Zm1.2 22.8A10.794 10.794 0 0 1 24.007 18h-2.4c0 7.291 5.904 13.2 13.193 13.2v-2.4ZM25.738 9.727l-9.588-4.8-1.076 2.148 9.588 4.8 1.076-2.148ZM14.844 5.078l-14.39 12 1.536 1.846 14.39-12-1.536-1.846ZM.454 18.922l14.39 12 1.536-1.844-14.39-12-1.536 1.846v-.002ZM16.15 31.075l9.588-4.8-1.076-2.148-9.588 4.8 1.076 2.148ZM1.224 19.2h11.99v-2.4H1.222v2.4h.002Z" fill="#FE1E98"/>
  </g>
  <defs>
    <clipPath id="a">
      <path fill="#fff" transform="rotate(90 18 18)" d="M0 0h36v36H0z"/>
    </clipPath>
  </defs>
</svg>
